<?xml version="1.0" encoding="UTF-8" standalone="no"?>
<!-- Created with Inkscape (http://www.inkscape.org/) -->

<svg
   width="180"
   height="180"
   viewBox="0 0 179.99989 180.00002"
   id="svg2"
   version="1.1"
   inkscape:version="1.1.1 (3bf5ae0d25, 2021-09-20, custom)"
   sodipodi:docname="de.svg"
   inkscape:export-filename="/home/peuc/OpenStreetMap/International/hebdoOSM/pl.png"
   inkscape:export-xdpi="9.306818"
   inkscape:export-ydpi="9.306818"
   xmlns:inkscape="http://www.inkscape.org/namespaces/inkscape"
   xmlns:sodipodi="http://sodipodi.sourceforge.net/DTD/sodipodi-0.dtd"
   xmlns:xlink="http://www.w3.org/1999/xlink"
   xmlns="http://www.w3.org/2000/svg"
   xmlns:svg="http://www.w3.org/2000/svg"
   xmlns:rdf="http://www.w3.org/1999/02/22-rdf-syntax-ns#"
   xmlns:cc="http://creativecommons.org/ns#"
   xmlns:dc="http://purl.org/dc/elements/1.1/">
  <defs
     id="defs4">
    <linearGradient
       id="linearGradient6999"
       inkscape:swatch="solid">
      <stop
         style="stop-color:#444444;stop-opacity:1;"
         offset="0"
         id="stop6997" />
    </linearGradient>
    <linearGradient
       inkscape:collect="always"
       xlink:href="#linearGradient6999"
       id="linearGradient14352"
       gradientUnits="userSpaceOnUse"
       gradientTransform="translate(225.39724,1173.8028)"
       x1="-45.468395"
       y1="885.11652"
       x2="45.357578"
       y2="885.11652" />
  </defs>
  <sodipodi:namedview
     id="base"
     pagecolor="#ffffff"
     bordercolor="#666666"
     borderopacity="1.0"
     inkscape:pageopacity="0.0"
     inkscape:pageshadow="2"
     inkscape:zoom="3.959798"
     inkscape:cx="-11.490485"
     inkscape:cy="103.41437"
     inkscape:document-units="px"
     inkscape:current-layer="g4194"
     showgrid="false"
     inkscape:snap-text-baseline="false"
     inkscape:window-width="2556"
     inkscape:window-height="1392"
     inkscape:window-x="0"
     inkscape:window-y="22"
     inkscape:window-maximized="1"
     units="px"
     inkscape:pagecheckerboard="0" />
  <metadata
     id="metadata7">
    <rdf:RDF>
      <cc:Work
         rdf:about="">
        <dc:format>image/svg+xml</dc:format>
        <dc:type
           rdf:resource="http://purl.org/dc/dcmitype/StillImage" />
      </cc:Work>
    </rdf:RDF>
  </metadata>
  <g
     inkscape:label="Calque 1"
     inkscape:groupmode="layer"
     id="layer1"
     transform="translate(0,-1034.3622)">
    <g
       id="g4194"
       transform="matrix(0.12304874,0,0,0.12304874,-0.57645916,927.03646)">
      <rect
         ry="247.31949"
         y="911.62952"
         x="43.608883"
         height="1384.4764"
         width="1384.8311"
         id="rect4800"
         style="fill:none;fill-opacity:1;stroke:#888888;stroke-width:76.4946;stroke-linecap:butt;stroke-linejoin:round;stroke-miterlimit:4;stroke-dasharray:none;stroke-dashoffset:0;stroke-opacity:1" />
      <g
         aria-label="de"
         id="text3931"
         style="font-size:1408.66px;line-height:125%;font-family:Sans;letter-spacing:0px;word-spacing:0px;fill:url(#linearGradient14352);stroke:#444444;stroke-width:8.12686px">
        <path
           d="m 242.28916,1880.6693 q -1.40866,-46.4858 -1.40866,-150.7266 0,-104.2408 1.40866,-150.7266 2.81732,-46.4858 12.67794,-104.2409 11.26928,-59.1637 35.2165,-81.7022 56.3464,-53.5291 173.26519,-53.5291 l 78.88496,28.1732 v -276.0974 q 94.38022,0 109.87548,11.2693 15.49526,9.8606 15.49526,74.659 v 928.3069 q -84.5196,0 -104.24084,-7.0433 -19.72124,-7.0433 -21.1299,-40.8511 l -85.92826,57.7551 q -111.28415,0 -169.03921,-52.1205 -38.03382,-35.2165 -45.07712,-183.1258 z m 314.13119,69.0244 -14.0866,-45.0772 v -377.5208 l 12.67794,-39.4425 -109.87548,-28.1732 q -53.52909,4.226 -66.20703,59.1637 -12.67794,54.9377 -12.67794,218.3423 0,163.4046 12.67794,205.6644 15.49526,52.1204 67.61569,53.529 z"
           style="font-weight:bold;font-family:Economica;-inkscape-font-specification:'Economica Bold'"
           id="path3579" />
        <path
           d="m 1028.3213,1996.1794 q 95.7889,0 194.3951,-14.0866 v 109.8755 q -131.0054,23.9473 -185.9432,23.9473 -54.9377,0 -88.74554,-8.452 -32.39918,-7.0433 -56.3464,-16.9039 -23.94722,-11.2693 -39.44248,-36.6252 -15.49526,-25.3559 -23.94722,-46.4858 -8.45196,-22.5385 -12.67794,-67.6157 -5.63464,-60.5723 -5.63464,-128.188 0,-69.0244 0,-115.5101 v -73.2504 q 0,-100.0148 5.63464,-123.962 5.63464,-25.3559 12.67794,-53.5291 7.0433,-29.5819 18.31258,-40.8512 11.26928,-12.6779 26.76454,-28.1732 16.90392,-16.9039 38.03382,-22.5385 66.20702,-14.0866 118.3274,-14.0866 52.1205,0 88.7456,16.9039 38.0338,15.4953 57.7551,39.4425 21.1299,23.9472 32.3992,67.6157 18.3125,69.0243 18.3125,180.3084 l 4.226,95.7889 -307.08786,7.0433 11.26928,32.3992 q 0,139.4573 12.67794,178.8998 14.0866,38.0338 80.29364,38.0338 z m 73.2503,-401.4681 q -1.4087,-77.4763 -15.4953,-105.6495 -12.6779,-29.5818 -63.3897,-29.5818 -50.71172,0 -66.20698,25.3559 -14.0866,25.3558 -14.0866,109.8754 l -11.26928,30.9906 h 184.53446 z"
           style="font-weight:bold;font-family:Economica;-inkscape-font-specification:'Economica Bold'"
           id="path3581" />
      </g>
    </g>
  </g>
</svg>
