<?xml version="1.0" encoding="UTF-8" standalone="no"?>
<!-- Created with Inkscape (http://www.inkscape.org/) -->

<svg
   width="180"
   height="180"
   viewBox="0 0 179.99989 180.00002"
   id="svg2"
   version="1.1"
   inkscape:version="1.1.1 (3bf5ae0d25, 2021-09-20, custom)"
   sodipodi:docname="dk.svg"
   inkscape:export-filename="/home/peuc/OpenStreetMap/International/hebdoOSM/pl.png"
   inkscape:export-xdpi="9.306818"
   inkscape:export-ydpi="9.306818"
   xmlns:inkscape="http://www.inkscape.org/namespaces/inkscape"
   xmlns:sodipodi="http://sodipodi.sourceforge.net/DTD/sodipodi-0.dtd"
   xmlns:xlink="http://www.w3.org/1999/xlink"
   xmlns="http://www.w3.org/2000/svg"
   xmlns:svg="http://www.w3.org/2000/svg"
   xmlns:rdf="http://www.w3.org/1999/02/22-rdf-syntax-ns#"
   xmlns:cc="http://creativecommons.org/ns#"
   xmlns:dc="http://purl.org/dc/elements/1.1/">
  <defs
     id="defs4">
    <linearGradient
       id="linearGradient6999"
       inkscape:swatch="solid">
      <stop
         style="stop-color:#444444;stop-opacity:1;"
         offset="0"
         id="stop6997" />
    </linearGradient>
    <linearGradient
       inkscape:collect="always"
       xlink:href="#linearGradient6999"
       id="linearGradient3369"
       gradientUnits="userSpaceOnUse"
       gradientTransform="translate(172.5725,1173.8031)"
       x1="-45.468395"
       y1="885.11652"
       x2="45.357578"
       y2="885.11652" />
  </defs>
  <sodipodi:namedview
     id="base"
     pagecolor="#ffffff"
     bordercolor="#666666"
     borderopacity="1.0"
     inkscape:pageopacity="0.0"
     inkscape:pageshadow="2"
     inkscape:zoom="3.959798"
     inkscape:cx="-11.490485"
     inkscape:cy="103.41437"
     inkscape:document-units="px"
     inkscape:current-layer="g4194"
     showgrid="false"
     inkscape:snap-text-baseline="false"
     inkscape:window-width="2556"
     inkscape:window-height="1392"
     inkscape:window-x="0"
     inkscape:window-y="22"
     inkscape:window-maximized="1"
     units="px"
     inkscape:pagecheckerboard="0" />
  <metadata
     id="metadata7">
    <rdf:RDF>
      <cc:Work
         rdf:about="">
        <dc:format>image/svg+xml</dc:format>
        <dc:type
           rdf:resource="http://purl.org/dc/dcmitype/StillImage" />
      </cc:Work>
    </rdf:RDF>
  </metadata>
  <g
     inkscape:label="Calque 1"
     inkscape:groupmode="layer"
     id="layer1"
     transform="translate(0,-1034.3622)">
    <g
       id="g4194"
       transform="matrix(0.12304874,0,0,0.12304874,-0.57645916,927.03646)">
      <rect
         ry="247.31949"
         y="911.62952"
         x="43.608883"
         height="1384.4764"
         width="1384.8311"
         id="rect4800"
         style="fill:none;fill-opacity:1;stroke:#888888;stroke-width:76.4946;stroke-linecap:butt;stroke-linejoin:round;stroke-miterlimit:4;stroke-dasharray:none;stroke-dashoffset:0;stroke-opacity:1" />
      <g
         aria-label="dk"
         id="text3931"
         style="font-size:1408.66px;line-height:125%;font-family:Sans;letter-spacing:0px;word-spacing:0px;fill:url(#linearGradient3369);stroke:#444444;stroke-width:8.12686px">
        <path
           d="m 189.46442,1880.6693 q -1.40866,-46.4858 -1.40866,-150.7266 0,-104.2408 1.40866,-150.7266 2.81732,-46.4858 12.67794,-104.2409 11.26928,-59.1637 35.2165,-81.7022 56.3464,-53.5291 173.26518,-53.5291 l 78.88496,28.1732 v -276.0974 q 94.38022,0 109.87549,11.2693 15.49526,9.8606 15.49526,74.659 v 928.3069 q -84.51961,0 -104.24085,-7.0433 -19.72124,-7.0433 -21.1299,-40.8511 l -85.92826,57.7551 q -111.28414,0 -169.0392,-52.1205 -38.03382,-35.2165 -45.07712,-183.1258 z m 314.13118,69.0244 -14.0866,-45.0772 v -377.5208 l 12.67794,-39.4425 -109.87548,-28.1732 q -53.52908,4.226 -66.20702,59.1637 -12.67794,54.9377 -12.67794,218.3423 0,163.4046 12.67794,205.6644 15.49526,52.1204 67.61568,53.529 z"
           style="font-weight:bold;font-family:Economica;-inkscape-font-specification:'Economica Bold'"
           id="path3543" />
        <path
           d="m 902.24622,2106.0549 h -19.72124 q -78.88496,0 -92.97156,-9.8606 -12.67794,-11.2693 -12.67794,-74.659 v -929.7156 q 94.38022,0 109.87548,11.2693 15.49526,9.8606 15.49526,74.659 z m 156.36128,-409.92 225.3856,409.92 h -145.092 l -215.52498,-409.92 198.62108,-346.5304 h 138.0487 z"
           style="font-weight:bold;font-family:Economica;-inkscape-font-specification:'Economica Bold'"
           id="path3545" />
      </g>
    </g>
  </g>
</svg>
