<?xml version="1.0" encoding="UTF-8" standalone="no"?>
<!-- Created with Inkscape (http://www.inkscape.org/) -->

<svg
   width="180"
   height="180"
   viewBox="0 0 179.99989 180.00002"
   id="svg2"
   version="1.1"
   inkscape:version="1.4 (e7c3feb100, 2024-10-09)"
   sodipodi:docname="eo.svg"
   inkscape:export-filename="/home/peuc/OpenStreetMap/International/hebdoOSM/pl.png"
   inkscape:export-xdpi="9.306818"
   inkscape:export-ydpi="9.306818"
   xmlns:inkscape="http://www.inkscape.org/namespaces/inkscape"
   xmlns:sodipodi="http://sodipodi.sourceforge.net/DTD/sodipodi-0.dtd"
   xmlns:xlink="http://www.w3.org/1999/xlink"
   xmlns="http://www.w3.org/2000/svg"
   xmlns:svg="http://www.w3.org/2000/svg"
   xmlns:rdf="http://www.w3.org/1999/02/22-rdf-syntax-ns#"
   xmlns:cc="http://creativecommons.org/ns#"
   xmlns:dc="http://purl.org/dc/elements/1.1/">
  <defs
     id="defs4">
    <linearGradient
       id="linearGradient6999"
       inkscape:swatch="solid">
      <stop
         style="stop-color:#444444;stop-opacity:1;"
         offset="0"
         id="stop6997" />
    </linearGradient>
    <linearGradient
       inkscape:collect="always"
       xlink:href="#linearGradient6999"
       id="linearGradient1451"
       gradientUnits="userSpaceOnUse"
       gradientTransform="translate(227.51033,1049.8408)"
       x1="-45.468395"
       y1="885.11652"
       x2="45.357578"
       y2="885.11652" />
  </defs>
  <sodipodi:namedview
     id="base"
     pagecolor="#ffffff"
     bordercolor="#666666"
     borderopacity="1.0"
     inkscape:pageopacity="0.0"
     inkscape:pageshadow="2"
     inkscape:zoom="3.959798"
     inkscape:cx="80.433396"
     inkscape:cy="103.2881"
     inkscape:document-units="px"
     inkscape:current-layer="g4194"
     showgrid="false"
     inkscape:snap-text-baseline="false"
     inkscape:window-width="1920"
     inkscape:window-height="1011"
     inkscape:window-x="0"
     inkscape:window-y="0"
     inkscape:window-maximized="1"
     units="px"
     inkscape:pagecheckerboard="0"
     inkscape:showpageshadow="2"
     inkscape:deskcolor="#d1d1d1" />
  <metadata
     id="metadata7">
    <rdf:RDF>
      <cc:Work
         rdf:about="">
        <dc:format>image/svg+xml</dc:format>
        <dc:type
           rdf:resource="http://purl.org/dc/dcmitype/StillImage" />
      </cc:Work>
    </rdf:RDF>
  </metadata>
  <g
     inkscape:label="Calque 1"
     inkscape:groupmode="layer"
     id="layer1"
     transform="translate(0,-1034.3622)">
    <g
       id="g4194"
       transform="matrix(0.12304874,0,0,0.12304874,-0.57645916,927.03646)">
      <rect
         ry="247.31949"
         y="911.62952"
         x="43.608883"
         height="1384.4764"
         width="1384.8311"
         id="rect4800"
         style="fill:none;fill-opacity:1;stroke:#888888;stroke-width:76.4946;stroke-linecap:butt;stroke-linejoin:round;stroke-miterlimit:4;stroke-dasharray:none;stroke-dashoffset:0;stroke-opacity:1" />
      <path
         d="m 610.65385,1896.1646 c -54.93774,12.678 -105.6495,18.3126 -164.81322,18.3126 -114.10146,0 -114.10146,-70.433 -114.10146,-267.6454 l -5.63464,-35.2165 287.36664,-7.0433 -5.63464,-76.0676 c 0,-201.4384 0,-312.7226 -161.9959,-312.7226 -195.80375,0 -195.80375,115.5102 -195.80375,395.8335 0,278.9147 0,380.3382 195.80375,380.3382 59.16372,0 107.05816,-11.2693 164.81322,-23.9472 z M 534.58621,1535.5477 H 334.55649 l 5.63464,-35.2165 c -1.40866,-136.6401 -1.40866,-209.8904 105.6495,-209.8904 73.25032,0 81.70228,73.2503 81.70228,208.4817 z m 405.695,456.4058 c 192.98639,0 191.57779,-112.6928 191.57779,-391.6075 0,-278.9147 0,-384.5642 -191.57779,-384.5642 -192.98642,0 -192.98642,104.2409 -192.98642,384.5642 0,280.3234 0,391.6075 192.98642,391.6075 z m 0,-74.659 c -114.10146,0 -109.87548,-95.7888 -109.87548,-332.4437 0,-212.7077 1.40866,-294.41 109.87548,-294.41 115.51009,0 108.46679,94.3802 108.46679,342.3044 0,201.4384 -2.8173,284.5493 -108.46679,284.5493 z"
         id="text3931"
         style="font-size:1408.66px;line-height:125%;font-family:Economica;-inkscape-font-specification:'Economica, @wght=700';font-variation-settings:'wght' 700;letter-spacing:0px;word-spacing:0px;fill:url(#linearGradient1451);stroke:#444444;stroke-width:8.12686px"
         aria-label="eo" />
    </g>
  </g>
</svg>
