<?xml version="1.0" encoding="UTF-8" standalone="no"?>
<!-- Created with Inkscape (http://www.inkscape.org/) -->

<svg
   width="180"
   height="180"
   viewBox="0 0 179.99989 180.00002"
   id="svg2"
   version="1.1"
   inkscape:version="1.1.1 (3bf5ae0d25, 2021-09-20, custom)"
   sodipodi:docname="fr.svg"
   inkscape:export-filename="/home/peuc/OpenStreetMap/International/hebdoOSM/pl.png"
   inkscape:export-xdpi="9.306818"
   inkscape:export-ydpi="9.306818"
   xmlns:inkscape="http://www.inkscape.org/namespaces/inkscape"
   xmlns:sodipodi="http://sodipodi.sourceforge.net/DTD/sodipodi-0.dtd"
   xmlns:xlink="http://www.w3.org/1999/xlink"
   xmlns="http://www.w3.org/2000/svg"
   xmlns:svg="http://www.w3.org/2000/svg"
   xmlns:rdf="http://www.w3.org/1999/02/22-rdf-syntax-ns#"
   xmlns:cc="http://creativecommons.org/ns#"
   xmlns:dc="http://purl.org/dc/elements/1.1/">
  <defs
     id="defs4">
    <linearGradient
       id="linearGradient6999"
       inkscape:swatch="solid">
      <stop
         style="stop-color:#444444;stop-opacity:1;"
         offset="0"
         id="stop6997" />
    </linearGradient>
    <linearGradient
       inkscape:collect="always"
       xlink:href="#linearGradient6999"
       id="linearGradient4453"
       gradientUnits="userSpaceOnUse"
       gradientTransform="translate(390.91531,1047.0238)"
       x1="-45.468395"
       y1="885.11652"
       x2="45.357578"
       y2="885.11652" />
  </defs>
  <sodipodi:namedview
     id="base"
     pagecolor="#ffffff"
     bordercolor="#666666"
     borderopacity="1.0"
     inkscape:pageopacity="0.0"
     inkscape:pageshadow="2"
     inkscape:zoom="3.959798"
     inkscape:cx="-11.490485"
     inkscape:cy="103.41437"
     inkscape:document-units="px"
     inkscape:current-layer="g4194"
     showgrid="false"
     inkscape:snap-text-baseline="false"
     inkscape:window-width="2556"
     inkscape:window-height="1392"
     inkscape:window-x="0"
     inkscape:window-y="22"
     inkscape:window-maximized="1"
     units="px"
     inkscape:pagecheckerboard="0" />
  <metadata
     id="metadata7">
    <rdf:RDF>
      <cc:Work
         rdf:about="">
        <dc:format>image/svg+xml</dc:format>
        <dc:type
           rdf:resource="http://purl.org/dc/dcmitype/StillImage" />
      </cc:Work>
    </rdf:RDF>
  </metadata>
  <g
     inkscape:label="Calque 1"
     inkscape:groupmode="layer"
     id="layer1"
     transform="translate(0,-1034.3622)">
    <g
       id="g4194"
       transform="matrix(0.12304874,0,0,0.12304874,-0.57645916,927.03646)">
      <rect
         ry="247.31949"
         y="911.62952"
         x="43.608883"
         height="1384.4764"
         width="1384.8311"
         id="rect4800"
         style="fill:none;fill-opacity:1;stroke:#888888;stroke-width:76.4946;stroke-linecap:butt;stroke-linejoin:round;stroke-miterlimit:4;stroke-dasharray:none;stroke-dashoffset:0;stroke-opacity:1" />
      <g
         aria-label="fr"
         id="text3931"
         style="font-size:1408.66px;line-height:125%;font-family:Sans;letter-spacing:0px;word-spacing:0px;fill:url(#linearGradient4453);stroke:#444444;stroke-width:8.12686px">
        <path
           d="m 686.72193,1222.8252 v 118.3274 h -140.866 l 14.0866,40.8512 v 762.0851 q -1.40866,74.6589 -16.90392,85.9282 -14.0866,12.678 -108.46683,12.678 l 1.40866,-860.6913 12.67794,-40.8512 h -77.4763 v -118.3274 h 77.4763 l -12.67794,-35.2165 v -70.433 q 0,-21.1299 4.22598,-52.1204 4.22598,-32.3992 8.45196,-40.8512 4.22598,-9.8606 18.31258,-25.35585 15.49526,-16.90392 29.58186,-19.72124 14.0866,-2.81732 45.07713,-8.45196 32.39918,-5.63464 63.3897,-5.63464 h 84.5196 v 100.01489 q -95.78888,0 -112.6928,15.4952 -15.49526,15.4953 -15.49526,109.8755 l -14.0866,32.3992 z"
           style="font-weight:bold;font-family:Economica;-inkscape-font-specification:'Economica Bold'"
           id="path3435" />
        <path
           d="m 916.3323,1979.2756 q -94.38022,0 -111.28414,-9.8606 -15.49526,-11.2693 -15.49526,-74.659 v -671.9308 q 92.97156,0 108.46682,5.6346 15.49526,5.6347 15.49526,38.0339 l 90.15422,-53.5291 q 40.8512,0 74.659,8.4519 l 22.5386,1.4087 q 0,80.2936 -11.2693,95.7889 -11.2693,14.0866 -71.8417,14.0866 l -115.5101,39.4425 14.0866,39.4424 z"
           style="font-weight:bold;font-family:Economica;-inkscape-font-specification:'Economica Bold'"
           id="path3437" />
      </g>
    </g>
  </g>
</svg>
