<?xml version="1.0" encoding="UTF-8" standalone="no"?>
<!-- Created with Inkscape (http://www.inkscape.org/) -->

<svg
   width="180"
   height="180"
   viewBox="0 0 179.99989 180.00002"
   id="svg2"
   version="1.1"
   inkscape:version="1.1.2 (0a00cf5339, 2022-02-04, custom)"
   sodipodi:docname="hu.svg"
   inkscape:export-filename="/home/peuc/OpenStreetMap/International/hebdoOSM/pl.png"
   inkscape:export-xdpi="9.306818"
   inkscape:export-ydpi="9.306818"
   xmlns:inkscape="http://www.inkscape.org/namespaces/inkscape"
   xmlns:sodipodi="http://sodipodi.sourceforge.net/DTD/sodipodi-0.dtd"
   xmlns:xlink="http://www.w3.org/1999/xlink"
   xmlns="http://www.w3.org/2000/svg"
   xmlns:svg="http://www.w3.org/2000/svg"
   xmlns:rdf="http://www.w3.org/1999/02/22-rdf-syntax-ns#"
   xmlns:cc="http://creativecommons.org/ns#"
   xmlns:dc="http://purl.org/dc/elements/1.1/">
  <defs
     id="defs4">
    <linearGradient
       id="linearGradient6999"
       inkscape:swatch="solid">
      <stop
         style="stop-color:#444444;stop-opacity:1;"
         offset="0"
         id="stop6997" />
    </linearGradient>
    <linearGradient
       inkscape:collect="always"
       xlink:href="#linearGradient6999"
       id="linearGradient1922"
       gradientUnits="userSpaceOnUse"
       gradientTransform="translate(190.88529,1173.8032)"
       x1="-45.468395"
       y1="885.11652"
       x2="45.357578"
       y2="885.11652" />
  </defs>
  <sodipodi:namedview
     id="base"
     pagecolor="#ffffff"
     bordercolor="#666666"
     borderopacity="1.0"
     inkscape:pageopacity="0.0"
     inkscape:pageshadow="2"
     inkscape:zoom="3.959798"
     inkscape:cx="80.559665"
     inkscape:cy="103.79317"
     inkscape:document-units="px"
     inkscape:current-layer="g4194"
     showgrid="false"
     inkscape:snap-text-baseline="false"
     inkscape:window-width="2556"
     inkscape:window-height="1389"
     inkscape:window-x="0"
     inkscape:window-y="22"
     inkscape:window-maximized="1"
     units="px"
     inkscape:pagecheckerboard="0" />
  <metadata
     id="metadata7">
    <rdf:RDF>
      <cc:Work
         rdf:about="">
        <dc:format>image/svg+xml</dc:format>
        <dc:type
           rdf:resource="http://purl.org/dc/dcmitype/StillImage" />
      </cc:Work>
    </rdf:RDF>
  </metadata>
  <g
     inkscape:label="Calque 1"
     inkscape:groupmode="layer"
     id="layer1"
     transform="translate(0,-1034.3622)">
    <g
       id="g4194"
       transform="matrix(0.12304874,0,0,0.12304874,-0.57645916,927.03646)">
      <rect
         ry="247.31949"
         y="911.62952"
         x="43.608883"
         height="1384.4764"
         width="1384.8311"
         id="rect4800"
         style="fill:none;fill-opacity:1;stroke:#888888;stroke-width:76.4946;stroke-linecap:butt;stroke-linejoin:round;stroke-miterlimit:4;stroke-dasharray:none;stroke-dashoffset:0;stroke-opacity:1" />
      <g
         aria-label="hu"
         id="text3931"
         style="font-size:1408.66px;line-height:125%;font-family:Sans;letter-spacing:0px;word-spacing:0px;fill:url(#linearGradient1922);stroke:#444444;stroke-width:8.12686px">
        <path
           d="m 352.86921,2021.5353 q 0,63.3897 -15.49526,74.659 -15.49526,9.8606 -109.87548,9.8606 V 1091.8197 q 92.97156,0 108.46682,11.2693 15.49526,9.8606 15.49526,74.659 v 200.0297 l 109.87548,-38.0338 q 142.27467,0 173.26519,77.4763 30.99052,77.4763 30.99052,314.1312 v 374.7035 q -94.38022,0 -111.28414,-9.8606 -15.49526,-11.2693 -15.49526,-74.659 v -291.5926 q 0,-132.414 -7.0433,-184.5345 -7.0433,-53.529 -22.53856,-69.0243 -14.0866,-15.4953 -39.44249,-16.9039 l -129.59672,38.0338 12.67794,39.4425 z"
           style="font-weight:bold;font-family:Economica;-inkscape-font-specification:'Economica Bold'"
           id="path956" />
        <path
           d="m 1131.8576,1946.8763 -14.0866,-42.2598 v -555.012 q 94.3802,0 109.8754,11.2693 16.904,9.8606 16.904,73.2503 v 671.9308 q -83.111,0 -104.2409,-4.2259 -21.1299,-5.6347 -22.5385,-33.8079 l -90.1543,47.8945 q -111.28412,0 -173.26516,-54.9378 -39.44248,-33.8078 -45.07712,-185.9431 -2.81732,-46.4858 -2.81732,-150.7266 v -374.7036 q 94.38022,0 109.87548,11.2693 15.49526,9.8606 15.49526,73.2503 v 287.3666 q 0,164.8133 7.0433,191.5778 8.45196,26.7645 16.90392,46.4858 14.0866,33.8078 57.75504,36.6251 z"
           style="font-weight:bold;font-family:Economica;-inkscape-font-specification:'Economica Bold'"
           id="path958" />
      </g>
    </g>
  </g>
</svg>
