<?xml version="1.0" encoding="UTF-8" standalone="no"?>
<!-- Created with Inkscape (http://www.inkscape.org/) -->

<svg
   width="180"
   height="180"
   viewBox="0 0 179.99989 180.00002"
   id="svg2"
   version="1.1"
   inkscape:version="1.1.1 (3bf5ae0d25, 2021-09-20, custom)"
   sodipodi:docname="it.svg"
   inkscape:export-filename="/home/peuc/OpenStreetMap/International/hebdoOSM/pl.png"
   inkscape:export-xdpi="9.306818"
   inkscape:export-ydpi="9.306818"
   xmlns:inkscape="http://www.inkscape.org/namespaces/inkscape"
   xmlns:sodipodi="http://sodipodi.sourceforge.net/DTD/sodipodi-0.dtd"
   xmlns:xlink="http://www.w3.org/1999/xlink"
   xmlns="http://www.w3.org/2000/svg"
   xmlns:svg="http://www.w3.org/2000/svg"
   xmlns:rdf="http://www.w3.org/1999/02/22-rdf-syntax-ns#"
   xmlns:cc="http://creativecommons.org/ns#"
   xmlns:dc="http://purl.org/dc/elements/1.1/">
  <defs
     id="defs4">
    <linearGradient
       id="linearGradient6999"
       inkscape:swatch="solid">
      <stop
         style="stop-color:#444444;stop-opacity:1;"
         offset="0"
         id="stop6997" />
    </linearGradient>
    <linearGradient
       inkscape:collect="always"
       xlink:href="#linearGradient6999"
       id="linearGradient5643"
       gradientUnits="userSpaceOnUse"
       gradientTransform="translate(396.54966,1166.7599)"
       x1="-45.468395"
       y1="885.11652"
       x2="45.357578"
       y2="885.11652" />
  </defs>
  <sodipodi:namedview
     id="base"
     pagecolor="#ffffff"
     bordercolor="#666666"
     borderopacity="1.0"
     inkscape:pageopacity="0.0"
     inkscape:pageshadow="2"
     inkscape:zoom="3.959798"
     inkscape:cx="-11.490485"
     inkscape:cy="103.41437"
     inkscape:document-units="px"
     inkscape:current-layer="g4194"
     showgrid="false"
     inkscape:snap-text-baseline="false"
     inkscape:window-width="2556"
     inkscape:window-height="1392"
     inkscape:window-x="0"
     inkscape:window-y="22"
     inkscape:window-maximized="1"
     units="px"
     inkscape:pagecheckerboard="0" />
  <metadata
     id="metadata7">
    <rdf:RDF>
      <cc:Work
         rdf:about="">
        <dc:format>image/svg+xml</dc:format>
        <dc:type
           rdf:resource="http://purl.org/dc/dcmitype/StillImage" />
      </cc:Work>
    </rdf:RDF>
  </metadata>
  <g
     inkscape:label="Calque 1"
     inkscape:groupmode="layer"
     id="layer1"
     transform="translate(0,-1034.3622)">
    <g
       id="g4194"
       transform="matrix(0.12304874,0,0,0.12304874,-0.57645916,927.03646)">
      <rect
         ry="247.31949"
         y="911.62952"
         x="43.608883"
         height="1384.4764"
         width="1384.8311"
         id="rect4800"
         style="fill:none;fill-opacity:1;stroke:#888888;stroke-width:76.4946;stroke-linecap:butt;stroke-linejoin:round;stroke-miterlimit:4;stroke-dasharray:none;stroke-dashoffset:0;stroke-opacity:1" />
      <g
         aria-label="it"
         id="text3931"
         style="font-size:1408.66px;line-height:125%;font-family:Sans;letter-spacing:0px;word-spacing:0px;fill:url(#linearGradient5643);stroke:#444444;stroke-width:8.12686px">
        <path
           d="m 510.63912,1270.7196 q -33.80784,0 -59.16372,-25.3559 -25.35588,-26.7645 -25.35588,-60.5723 0,-35.2165 25.35588,-59.1638 25.35588,-23.9472 59.16372,-23.9472 33.80784,0 59.16372,23.9472 25.35588,23.9473 25.35588,59.1638 0,33.8078 -25.35588,60.5723 -25.35588,25.3559 -59.16372,25.3559 z m -61.98104,749.4072 v -677.5655 q 94.38022,0 109.87548,11.2693 15.49526,9.8606 15.49526,73.2503 v 677.5655 q -94.38022,0 -109.87548,-9.8607 -15.49526,-11.2692 -15.49526,-74.6589 z"
           style="font-weight:bold;font-family:Economica;-inkscape-font-specification:'Economica Bold'"
           id="path3324" />
        <path
           d="m 1020.5734,1342.5613 q 0,80.2936 -15.4953,100.0148 -14.08656,18.3126 -85.92823,18.3126 h -40.85114 l 12.67794,35.2165 v 278.9147 q 0,119.7361 8.45196,164.8132 9.86062,43.6685 39.44249,49.3031 h 107.05818 v 109.8755 l -114.10148,7.0433 q -70.43301,0 -92.97157,-14.0866 -22.53856,-14.0866 -33.80784,-22.5385 -11.26928,-8.452 -19.72124,-33.8079 -8.45196,-26.7645 -12.67794,-42.2598 -4.22598,-16.9039 -7.0433,-59.1637 -1.40866,-43.6685 -1.40866,-71.8417 v -366.2516 l 11.26928,-35.2165 h -74.65898 v -118.3274 h 74.65898 l -11.26928,-52.1204 v -71.8417 q 94.38022,0 109.87548,9.8606 16.90392,8.452 16.90392,66.207 l -11.26928,47.8945 z"
           style="font-weight:bold;font-family:Economica;-inkscape-font-specification:'Economica Bold'"
           id="path3326" />
      </g>
    </g>
  </g>
</svg>
