<?xml version="1.0" encoding="UTF-8" standalone="no"?>
<!-- Created with Inkscape (http://www.inkscape.org/) -->

<svg
   width="180"
   height="180"
   viewBox="0 0 179.99989 180.00002"
   id="svg2"
   version="1.1"
   inkscape:version="1.1.1 (3bf5ae0d25, 2021-09-20, custom)"
   sodipodi:docname="ko.svg"
   inkscape:export-filename="/home/peuc/OpenStreetMap/International/hebdoOSM/pl.png"
   inkscape:export-xdpi="9.306818"
   inkscape:export-ydpi="9.306818"
   xmlns:inkscape="http://www.inkscape.org/namespaces/inkscape"
   xmlns:sodipodi="http://sodipodi.sourceforge.net/DTD/sodipodi-0.dtd"
   xmlns:xlink="http://www.w3.org/1999/xlink"
   xmlns="http://www.w3.org/2000/svg"
   xmlns:svg="http://www.w3.org/2000/svg"
   xmlns:rdf="http://www.w3.org/1999/02/22-rdf-syntax-ns#"
   xmlns:cc="http://creativecommons.org/ns#"
   xmlns:dc="http://purl.org/dc/elements/1.1/">
  <defs
     id="defs4">
    <linearGradient
       id="linearGradient6999"
       inkscape:swatch="solid">
      <stop
         style="stop-color:#444444;stop-opacity:1;"
         offset="0"
         id="stop6997" />
    </linearGradient>
    <linearGradient
       inkscape:collect="always"
       xlink:href="#linearGradient6999"
       id="linearGradient7185"
       gradientUnits="userSpaceOnUse"
       gradientTransform="translate(209.33229,1173.8033)"
       x1="-45.468395"
       y1="885.11652"
       x2="45.357578"
       y2="885.11652" />
  </defs>
  <sodipodi:namedview
     id="base"
     pagecolor="#ffffff"
     bordercolor="#666666"
     borderopacity="1.0"
     inkscape:pageopacity="0.0"
     inkscape:pageshadow="2"
     inkscape:zoom="3.959798"
     inkscape:cx="-11.490485"
     inkscape:cy="103.41437"
     inkscape:document-units="px"
     inkscape:current-layer="g4194"
     showgrid="false"
     inkscape:snap-text-baseline="false"
     inkscape:window-width="2556"
     inkscape:window-height="1392"
     inkscape:window-x="0"
     inkscape:window-y="22"
     inkscape:window-maximized="1"
     units="px"
     inkscape:pagecheckerboard="0" />
  <metadata
     id="metadata7">
    <rdf:RDF>
      <cc:Work
         rdf:about="">
        <dc:format>image/svg+xml</dc:format>
        <dc:type
           rdf:resource="http://purl.org/dc/dcmitype/StillImage" />
      </cc:Work>
    </rdf:RDF>
  </metadata>
  <g
     inkscape:label="Calque 1"
     inkscape:groupmode="layer"
     id="layer1"
     transform="translate(0,-1034.3622)">
    <g
       id="g4194"
       transform="matrix(0.12304874,0,0,0.12304874,-0.57645916,927.03646)">
      <rect
         ry="247.31949"
         y="911.62952"
         x="43.608883"
         height="1384.4764"
         width="1384.8311"
         id="rect4800"
         style="fill:none;fill-opacity:1;stroke:#888888;stroke-width:76.4946;stroke-linecap:butt;stroke-linejoin:round;stroke-miterlimit:4;stroke-dasharray:none;stroke-dashoffset:0;stroke-opacity:1" />
      <g
         aria-label="ko"
         id="text3931"
         style="font-size:1408.66px;line-height:125%;font-family:Sans;letter-spacing:0px;word-spacing:0px;fill:url(#linearGradient7185);stroke:#444444;stroke-width:8.12686px">
        <path
           d="m 371.31619,2106.0549 h -19.72124 q -78.88497,0 -92.97157,-9.8606 -12.67794,-11.2693 -12.67794,-74.659 v -929.7156 q 94.38023,0 109.87549,11.2693 15.49526,9.8606 15.49526,74.659 z m 156.36126,-409.92 225.38561,409.92 H 607.97107 l -215.52498,-409.92 198.62106,-346.5304 h 138.04869 z"
           style="font-weight:bold;font-family:Economica;-inkscape-font-specification:'Economica Bold'"
           id="path3252" />
        <path
           d="m 844.6267,1731.3514 q 0,0 0,-87.337 0,-87.3369 4.22598,-116.9187 4.22598,-29.5819 9.86062,-57.7551 5.63464,-29.5819 12.67794,-42.2598 8.45196,-14.0866 19.72124,-32.3992 12.67794,-18.3126 28.1732,-25.3559 15.49526,-7.0433 36.62516,-15.4952 35.2165,-14.0866 102.83216,-14.0866 67.6157,0 108.4668,16.9039 42.2598,15.4953 64.7984,36.6252 23.9472,19.7212 33.8079,78.8849 9.8606,57.7551 11.2692,102.8322 2.8174,45.0771 2.8174,122.5534 v 105.6495 q 0,90.1543 -4.226,119.7361 -4.226,29.5819 -9.8606,59.1637 -5.6347,29.5819 -14.0866,43.6685 -7.0433,12.678 -19.7213,32.3992 -11.2693,18.3126 -28.1732,26.7645 -15.4953,7.0433 -36.6252,15.4953 -33.8078,15.4953 -90.1542,15.4953 -56.3464,0 -87.33692,-4.226 -29.58186,-4.226 -53.52908,-18.3126 -22.53856,-14.0866 -38.03382,-26.7645 -15.49526,-12.678 -26.76454,-42.2599 -9.86062,-30.9905 -15.49526,-52.1204 -5.63464,-21.1299 -7.0433,-69.0243 -4.22598,-80.2936 -4.22598,-171.8565 z M 1061.5603,1459.48 q -63.38966,0 -77.47626,52.1204 -14.0866,50.7118 -14.0866,177.4912 0,125.3707 1.40866,163.4045 1.40866,36.6252 9.86062,78.885 8.45196,40.8511 26.76458,53.5291 19.7212,11.2692 53.529,11.2692 63.3897,0 77.4763,-53.529 14.0866,-53.5291 14.0866,-180.3085 0,-126.7794 -1.4086,-163.4046 -1.4087,-36.6251 -9.8606,-76.0676 -8.452,-39.4425 -28.1732,-50.7118 -18.3126,-12.6779 -52.1205,-12.6779 z"
           style="font-weight:bold;font-family:Economica;-inkscape-font-specification:'Economica Bold'"
           id="path3254" />
      </g>
    </g>
  </g>
</svg>
