<?xml version="1.0" encoding="UTF-8" standalone="no"?>
<!-- Created with Inkscape (http://www.inkscape.org/) -->

<svg
   width="180"
   height="180"
   viewBox="0 0 179.99989 180.00002"
   id="svg2"
   version="1.1"
   inkscape:version="1.1.1 (3bf5ae0d25, 2021-09-20, custom)"
   sodipodi:docname="nan.svg"
   inkscape:export-filename="/home/peuc/OpenStreetMap/International/hebdoOSM/pl.png"
   inkscape:export-xdpi="9.306818"
   inkscape:export-ydpi="9.306818"
   xmlns:inkscape="http://www.inkscape.org/namespaces/inkscape"
   xmlns:sodipodi="http://sodipodi.sourceforge.net/DTD/sodipodi-0.dtd"
   xmlns:xlink="http://www.w3.org/1999/xlink"
   xmlns="http://www.w3.org/2000/svg"
   xmlns:svg="http://www.w3.org/2000/svg"
   xmlns:rdf="http://www.w3.org/1999/02/22-rdf-syntax-ns#"
   xmlns:cc="http://creativecommons.org/ns#"
   xmlns:dc="http://purl.org/dc/elements/1.1/">
  <defs
     id="defs4">
    <linearGradient
       id="linearGradient6999"
       inkscape:swatch="solid">
      <stop
         style="stop-color:#444444;stop-opacity:1;"
         offset="0"
         id="stop6997" />
    </linearGradient>
    <linearGradient
       inkscape:collect="always"
       xlink:href="#linearGradient6999"
       id="linearGradient19563"
       gradientUnits="userSpaceOnUse"
       gradientTransform="translate(135.40806,962.55801)"
       x1="-45.468395"
       y1="885.11652"
       x2="45.357578"
       y2="885.11652" />
  </defs>
  <sodipodi:namedview
     id="base"
     pagecolor="#ffffff"
     bordercolor="#666666"
     borderopacity="1.0"
     inkscape:pageopacity="0.0"
     inkscape:pageshadow="2"
     inkscape:zoom="3.959798"
     inkscape:cx="-11.490485"
     inkscape:cy="103.41437"
     inkscape:document-units="px"
     inkscape:current-layer="g4194"
     showgrid="false"
     inkscape:snap-text-baseline="false"
     inkscape:window-width="2556"
     inkscape:window-height="1392"
     inkscape:window-x="0"
     inkscape:window-y="22"
     inkscape:window-maximized="1"
     units="px"
     inkscape:pagecheckerboard="0" />
  <metadata
     id="metadata7">
    <rdf:RDF>
      <cc:Work
         rdf:about="">
        <dc:format>image/svg+xml</dc:format>
        <dc:type
           rdf:resource="http://purl.org/dc/dcmitype/StillImage" />
      </cc:Work>
    </rdf:RDF>
  </metadata>
  <g
     inkscape:label="Calque 1"
     inkscape:groupmode="layer"
     id="layer1"
     transform="translate(0,-1034.3622)">
    <g
       id="g4194"
       transform="matrix(0.12304874,0,0,0.12304874,-0.57645916,927.03646)">
      <rect
         ry="247.31949"
         y="911.62952"
         x="43.608883"
         height="1384.4764"
         width="1384.8311"
         id="rect4800"
         style="fill:none;fill-opacity:1;stroke:#888888;stroke-width:76.4946;stroke-linecap:butt;stroke-linejoin:round;stroke-miterlimit:4;stroke-dasharray:none;stroke-dashoffset:0;stroke-opacity:1" />
      <g
         aria-label="nan"
         id="text3931"
         style="font-size:1083.58px;line-height:125%;font-family:Sans;letter-spacing:0px;word-spacing:0px;fill:url(#linearGradient19563);stroke:#444444;stroke-width:8.12686px">
        <path
           d="m 385.48607,1605.4931 1.08358,-95.355 q 0,-43.3432 -2.16716,-65.0148 -4.33432,-45.5104 -50.92826,-47.6775 l -99.68936,29.2566 9.75222,30.3403 v 437.7663 q -72.59985,0 -84.51923,-7.5851 -11.91938,-8.6686 -11.91938,-57.4297 v -516.8677 q 62.84763,0 79.10133,3.2508 16.2537,3.2507 17.33728,19.5044 l 80.18492,-30.3402 q 66.09838,0 86.6864,8.6686 20.58802,8.6686 31.42381,15.1701 10.8358,6.5015 19.50444,27.0895 8.66864,19.5045 11.91938,36.8417 3.25074,16.2537 6.50148,53.0955 3.25074,53.0954 3.25074,160.3698 v 288.2323 q -72.59985,0 -85.60281,-7.5851 -11.91938,-8.6686 -11.91938,-57.4297 z"
           style="font-weight:bold;font-family:Economica;-inkscape-font-specification:'Economica Bold'"
           id="path3213" />
        <path
           d="m 790.74597,1447.2904 1.08357,-29.2566 q 0,-15.1701 -3.25073,-16.2537 -3.25074,-1.0836 -7.58506,-4.3343 -4.33432,-4.3344 -11.91938,-2.1672 -6.50148,2.1672 -16.2537,1.0836 l -58.51332,7.585 q -22.75518,3.2508 -39.00888,3.2508 -16.2537,0 -24.92234,-7.5851 -8.66864,-7.585 -17.33728,-69.3491 l 125.69528,-24.9223 q 76.93417,0 96.43861,11.9193 19.50444,10.8358 28.17308,18.4209 8.66864,7.5851 11.91938,30.3402 5.4179,28.1731 5.4179,88.8536 v 439.9335 q -62.84764,0 -79.10134,-6.5015 -16.25369,-6.5015 -17.33727,-31.4238 l -89.93714,45.5103 q -30.34024,0 -45.51036,-1.0836 -14.08654,0 -29.25666,-8.6686 -14.08654,-8.6686 -19.50444,-17.3373 -4.33432,-8.6686 -8.66864,-36.8417 -5.4179,-33.591 -5.4179,-137.6147 v -74.767 q 0,-122.4445 213.46525,-126.7788 l -8.66863,-26.0059 z m -102.9401,362.9993 q 1.08358,0 109.44157,-41.176 l -10.83579,-31.4238 v -128.946 l 8.66863,-24.9224 q -44.42677,1.0836 -78.01775,8.6687 -33.59098,7.585 -33.59098,20.588 l -1.08358,143.0325 q 0,54.179 5.4179,54.179 z"
           style="font-weight:bold;font-family:Economica;-inkscape-font-specification:'Economica Bold'"
           id="path3215" />
        <path
           d="m 1227.4281,1605.4931 1.0836,-95.355 q 0,-43.3432 -2.1671,-65.0148 -4.3344,-45.5104 -50.9283,-47.6775 l -99.6893,29.2566 9.7522,30.3403 v 437.7663 q -72.5999,0 -84.5193,-7.5851 -11.91935,-8.6686 -11.91935,-57.4297 v -516.8677 q 62.84765,0 79.10135,3.2508 16.2537,3.2507 17.3373,19.5044 l 80.1849,-30.3402 q 66.0984,0 86.6864,8.6686 20.588,8.6686 31.4238,15.1701 10.8358,6.5015 19.5044,27.0895 8.6687,19.5045 11.9194,36.8417 3.2508,16.2537 6.5015,53.0955 3.2507,53.0954 3.2507,160.3698 v 288.2323 q -72.5998,0 -85.6028,-7.5851 -11.9194,-8.6686 -11.9194,-57.4297 z"
           style="font-weight:bold;font-family:Economica;-inkscape-font-specification:'Economica Bold'"
           id="path3217" />
      </g>
    </g>
  </g>
</svg>
