<?xml version="1.0" encoding="UTF-8" standalone="no"?>
<!-- Created with Inkscape (http://www.inkscape.org/) -->

<svg
   width="180"
   height="180"
   viewBox="0 0 179.99989 180.00002"
   id="svg2"
   version="1.1"
   inkscape:version="1.1.1 (3bf5ae0d25, 2021-09-20, custom)"
   sodipodi:docname="pl.svg"
   inkscape:export-filename="/home/peuc/OpenStreetMap/International/hebdoOSM/pl.png"
   inkscape:export-xdpi="9.306818"
   inkscape:export-ydpi="9.306818"
   xmlns:inkscape="http://www.inkscape.org/namespaces/inkscape"
   xmlns:sodipodi="http://sodipodi.sourceforge.net/DTD/sodipodi-0.dtd"
   xmlns:xlink="http://www.w3.org/1999/xlink"
   xmlns="http://www.w3.org/2000/svg"
   xmlns:svg="http://www.w3.org/2000/svg"
   xmlns:rdf="http://www.w3.org/1999/02/22-rdf-syntax-ns#"
   xmlns:cc="http://creativecommons.org/ns#"
   xmlns:dc="http://purl.org/dc/elements/1.1/">
  <defs
     id="defs4">
    <linearGradient
       id="linearGradient6999"
       inkscape:swatch="solid">
      <stop
         style="stop-color:#444444;stop-opacity:1;"
         offset="0"
         id="stop6997" />
    </linearGradient>
    <linearGradient
       inkscape:collect="always"
       xlink:href="#linearGradient6999"
       id="linearGradient10231"
       gradientUnits="userSpaceOnUse"
       gradientTransform="translate(344.42827,1050.2936)"
       x1="-45.468395"
       y1="885.11652"
       x2="45.357578"
       y2="885.11652" />
  </defs>
  <sodipodi:namedview
     id="base"
     pagecolor="#ffffff"
     bordercolor="#666666"
     borderopacity="1.0"
     inkscape:pageopacity="0.0"
     inkscape:pageshadow="2"
     inkscape:zoom="3.959798"
     inkscape:cx="-11.490485"
     inkscape:cy="103.41437"
     inkscape:document-units="px"
     inkscape:current-layer="g4194"
     showgrid="false"
     inkscape:snap-text-baseline="false"
     inkscape:window-width="2556"
     inkscape:window-height="1392"
     inkscape:window-x="0"
     inkscape:window-y="22"
     inkscape:window-maximized="1"
     units="px"
     inkscape:pagecheckerboard="0" />
  <metadata
     id="metadata7">
    <rdf:RDF>
      <cc:Work
         rdf:about="">
        <dc:format>image/svg+xml</dc:format>
        <dc:type
           rdf:resource="http://purl.org/dc/dcmitype/StillImage" />
      </cc:Work>
    </rdf:RDF>
  </metadata>
  <g
     inkscape:label="Calque 1"
     inkscape:groupmode="layer"
     id="layer1"
     transform="translate(0,-1034.3622)">
    <g
       id="g4194"
       transform="matrix(0.12304874,0,0,0.12304874,-0.57645916,927.03646)">
      <rect
         ry="247.31949"
         y="911.62952"
         x="43.608883"
         height="1384.4764"
         width="1384.8311"
         id="rect4800"
         style="fill:none;fill-opacity:1;stroke:#888888;stroke-width:76.4946;stroke-linecap:butt;stroke-linejoin:round;stroke-miterlimit:4;stroke-dasharray:none;stroke-dashoffset:0;stroke-opacity:1" />
      <g
         aria-label="pl"
         id="text3931"
         style="font-size:1408.66px;line-height:125%;font-family:Sans;letter-spacing:0px;word-spacing:0px;fill:url(#linearGradient10231);stroke:#444444;stroke-width:8.12686px">
        <path
           d="m 381.04142,2161.445 v -935.3503 q 91.5629,0 107.05816,4.226 15.49527,4.226 15.49527,28.1732 l 102.83218,-42.2598 q 52.12042,0 111.28414,16.9039 21.1299,7.0433 36.62516,25.3559 16.90392,18.3126 26.76454,32.3992 11.26928,12.6779 18.31258,45.0771 7.0433,30.9905 9.86062,50.7118 4.22598,19.7212 5.63464,64.7983 2.81732,45.0772 2.81732,71.8417 v 84.5196 q 0,202.847 -8.45196,235.2462 -8.45196,30.9905 -19.72124,60.5724 -9.86062,29.5819 -25.35588,42.2598 -14.0866,11.2693 -36.62516,25.3559 -38.03382,21.1299 -123.96208,21.1299 l -98.6062,-49.3031 v 302.8619 q -92.97157,0 -108.46683,-11.2693 -15.49526,-9.8606 -15.49526,-73.2503 z m 228.20293,-288.7753 q 56.3464,-1.4087 69.02434,-53.5291 12.67794,-52.1204 12.67794,-207.073 0,-156.3613 -12.67794,-214.1163 -12.67794,-57.7551 -66.20702,-61.9811 l -118.32745,26.7646 12.67795,38.0338 v 380.3382 l -15.49527,43.6684 z"
           style="font-weight:bold;font-family:Economica;-inkscape-font-specification:'Economica Bold'"
           id="path3141" />
        <path
           d="m 1091.0074,1054.2382 v 933.9416 q -94.38024,0 -109.8755,-9.8606 -15.49526,-11.2693 -15.49526,-74.659 V 968.30994 q 92.97156,0 108.46686,11.26928 16.9039,9.86062 16.9039,74.65898 z"
           style="font-weight:bold;font-family:Economica;-inkscape-font-specification:'Economica Bold'"
           id="path3143" />
      </g>
    </g>
  </g>
</svg>
