<?xml version="1.0" encoding="UTF-8" standalone="no"?>
<!-- Created with Inkscape (http://www.inkscape.org/) -->

<svg
   width="180"
   height="180"
   viewBox="0 0 179.99989 180.00002"
   id="svg2"
   version="1.1"
   inkscape:version="1.1.1 (3bf5ae0d25, 2021-09-20, custom)"
   sodipodi:docname="pt.svg"
   inkscape:export-filename="/home/peuc/OpenStreetMap/International/hebdoOSM/pl.png"
   inkscape:export-xdpi="9.306818"
   inkscape:export-ydpi="9.306818"
   xmlns:inkscape="http://www.inkscape.org/namespaces/inkscape"
   xmlns:sodipodi="http://sodipodi.sourceforge.net/DTD/sodipodi-0.dtd"
   xmlns:xlink="http://www.w3.org/1999/xlink"
   xmlns="http://www.w3.org/2000/svg"
   xmlns:svg="http://www.w3.org/2000/svg"
   xmlns:rdf="http://www.w3.org/1999/02/22-rdf-syntax-ns#"
   xmlns:cc="http://creativecommons.org/ns#"
   xmlns:dc="http://purl.org/dc/elements/1.1/">
  <defs
     id="defs4">
    <linearGradient
       id="linearGradient6999"
       inkscape:swatch="solid">
      <stop
         style="stop-color:#444444;stop-opacity:1;"
         offset="0"
         id="stop6997" />
    </linearGradient>
    <linearGradient
       inkscape:collect="always"
       xlink:href="#linearGradient6999"
       id="linearGradient11197"
       gradientUnits="userSpaceOnUse"
       gradientTransform="translate(262.726,980.11272)"
       x1="-45.468395"
       y1="885.11652"
       x2="45.357578"
       y2="885.11652" />
  </defs>
  <sodipodi:namedview
     id="base"
     pagecolor="#ffffff"
     bordercolor="#666666"
     borderopacity="1.0"
     inkscape:pageopacity="0.0"
     inkscape:pageshadow="2"
     inkscape:zoom="3.959798"
     inkscape:cx="-11.490485"
     inkscape:cy="103.41437"
     inkscape:document-units="px"
     inkscape:current-layer="g4194"
     showgrid="false"
     inkscape:snap-text-baseline="false"
     inkscape:window-width="2556"
     inkscape:window-height="1392"
     inkscape:window-x="0"
     inkscape:window-y="22"
     inkscape:window-maximized="1"
     units="px"
     inkscape:pagecheckerboard="0" />
  <metadata
     id="metadata7">
    <rdf:RDF>
      <cc:Work
         rdf:about="">
        <dc:format>image/svg+xml</dc:format>
        <dc:type
           rdf:resource="http://purl.org/dc/dcmitype/StillImage" />
      </cc:Work>
    </rdf:RDF>
  </metadata>
  <g
     inkscape:label="Calque 1"
     inkscape:groupmode="layer"
     id="layer1"
     transform="translate(0,-1034.3622)">
    <g
       id="g4194"
       transform="matrix(0.12304874,0,0,0.12304874,-0.57645916,927.03646)">
      <rect
         ry="247.31949"
         y="911.62952"
         x="43.608883"
         height="1384.4764"
         width="1384.8311"
         id="rect4800"
         style="fill:none;fill-opacity:1;stroke:#888888;stroke-width:76.4946;stroke-linecap:butt;stroke-linejoin:round;stroke-miterlimit:4;stroke-dasharray:none;stroke-dashoffset:0;stroke-opacity:1" />
      <g
         aria-label="pt"
         id="text3931"
         style="font-size:1408.66px;line-height:125%;font-family:Sans;letter-spacing:0px;word-spacing:0px;fill:url(#linearGradient11197);stroke:#444444;stroke-width:8.12686px">
        <path
           d="m 299.33915,2091.2641 v -935.3503 q 91.5629,0 107.05816,4.226 15.49526,4.226 15.49526,28.1732 l 102.83219,-42.2598 q 52.12042,0 111.28414,16.9039 21.1299,7.0433 36.62516,25.3559 16.90392,18.3126 26.76454,32.3992 11.26928,12.6779 18.31258,45.0771 7.0433,30.9905 9.86062,50.7118 4.22598,19.7212 5.63464,64.7983 2.81732,45.0771 2.81732,71.8417 v 84.5196 q 0,202.847 -8.45196,235.2462 -8.45196,30.9905 -19.72124,60.5724 -9.86062,29.5819 -25.35588,42.2598 -14.0866,11.2693 -36.62516,25.3559 -38.03382,21.1299 -123.96208,21.1299 l -98.60621,-49.3031 v 302.8619 q -92.97156,0 -108.46682,-11.2693 -15.49526,-9.8606 -15.49526,-73.2503 z m 228.20293,-288.7753 q 56.3464,-1.4087 69.02434,-53.5291 12.67794,-52.1204 12.67794,-207.073 0,-156.3613 -12.67794,-214.1164 -12.67794,-57.755 -66.20702,-61.981 l -118.32745,26.7645 12.67794,38.0339 v 380.3382 l -15.49526,43.6684 z"
           style="font-weight:bold;font-family:Economica;-inkscape-font-specification:'Economica Bold'"
           id="path3105" />
        <path
           d="m 1147.3538,1155.9138 q 0,80.2936 -15.4953,100.0149 -14.0866,18.3126 -85.9282,18.3126 h -40.8512 l 12.678,35.2165 v 278.9146 q 0,119.7362 8.4519,164.8133 9.8607,43.6684 39.4425,49.3031 h 107.0582 v 109.8755 l -114.1015,7.0433 q -70.43299,0 -92.97155,-14.0866 -22.53856,-14.0866 -33.80784,-22.5386 -11.26928,-8.452 -19.72124,-33.8078 -8.45196,-26.7646 -12.67794,-42.2598 -4.22598,-16.904 -7.0433,-59.1638 -1.40866,-43.6684 -1.40866,-71.8416 v -366.2516 l 11.26928,-35.2165 h -74.65898 v -118.3275 h 74.65898 l -11.26928,-52.1204 v -71.8417 q 94.38022,0 109.87543,9.8607 16.904,8.4519 16.904,66.207 l -11.2693,47.8944 z"
           style="font-weight:bold;font-family:Economica;-inkscape-font-specification:'Economica Bold'"
           id="path3107" />
      </g>
    </g>
  </g>
</svg>
