<?xml version="1.0" encoding="UTF-8" standalone="no"?>
<!-- Created with Inkscape (http://www.inkscape.org/) -->

<svg
   width="180"
   height="180"
   viewBox="0 0 179.99989 180.00002"
   id="svg2"
   version="1.1"
   inkscape:version="1.1.1 (3bf5ae0d25, 2021-09-20, custom)"
   sodipodi:docname="sv.svg"
   inkscape:export-filename="/home/peuc/OpenStreetMap/International/hebdoOSM/pl.png"
   inkscape:export-xdpi="9.306818"
   inkscape:export-ydpi="9.306818"
   xmlns:inkscape="http://www.inkscape.org/namespaces/inkscape"
   xmlns:sodipodi="http://sodipodi.sourceforge.net/DTD/sodipodi-0.dtd"
   xmlns:xlink="http://www.w3.org/1999/xlink"
   xmlns="http://www.w3.org/2000/svg"
   xmlns:svg="http://www.w3.org/2000/svg"
   xmlns:rdf="http://www.w3.org/1999/02/22-rdf-syntax-ns#"
   xmlns:cc="http://creativecommons.org/ns#"
   xmlns:dc="http://purl.org/dc/elements/1.1/">
  <defs
     id="defs4">
    <linearGradient
       id="linearGradient6999"
       inkscape:swatch="solid">
      <stop
         style="stop-color:#444444;stop-opacity:1;"
         offset="0"
         id="stop6997" />
    </linearGradient>
    <linearGradient
       inkscape:collect="always"
       xlink:href="#linearGradient6999"
       id="linearGradient13579"
       gradientUnits="userSpaceOnUse"
       gradientTransform="translate(271.88287,1049.8416)"
       x1="-45.468395"
       y1="885.11652"
       x2="45.357578"
       y2="885.11652" />
  </defs>
  <sodipodi:namedview
     id="base"
     pagecolor="#ffffff"
     bordercolor="#666666"
     borderopacity="1.0"
     inkscape:pageopacity="0.0"
     inkscape:pageshadow="2"
     inkscape:zoom="3.959798"
     inkscape:cx="-11.490485"
     inkscape:cy="103.41437"
     inkscape:document-units="px"
     inkscape:current-layer="g4194"
     showgrid="false"
     inkscape:snap-text-baseline="false"
     inkscape:window-width="2556"
     inkscape:window-height="1392"
     inkscape:window-x="0"
     inkscape:window-y="22"
     inkscape:window-maximized="1"
     units="px"
     inkscape:pagecheckerboard="0" />
  <metadata
     id="metadata7">
    <rdf:RDF>
      <cc:Work
         rdf:about="">
        <dc:format>image/svg+xml</dc:format>
        <dc:type
           rdf:resource="http://purl.org/dc/dcmitype/StillImage" />
      </cc:Work>
    </rdf:RDF>
  </metadata>
  <g
     inkscape:label="Calque 1"
     inkscape:groupmode="layer"
     id="layer1"
     transform="translate(0,-1034.3622)">
    <g
       id="g4194"
       transform="matrix(0.12304874,0,0,0.12304874,-0.57645916,927.03646)">
      <rect
         ry="247.31949"
         y="911.62952"
         x="43.608883"
         height="1384.4764"
         width="1384.8311"
         id="rect4800"
         style="fill:none;fill-opacity:1;stroke:#888888;stroke-width:76.4946;stroke-linecap:butt;stroke-linejoin:round;stroke-miterlimit:4;stroke-dasharray:none;stroke-dashoffset:0;stroke-opacity:1" />
      <g
         aria-label="sv"
         id="text3931"
         style="font-size:1408.66px;line-height:125%;font-family:Sans;letter-spacing:0px;word-spacing:0px;fill:url(#linearGradient13579);stroke:#444444;stroke-width:8.12686px">
        <path
           d="m 274.68816,1858.1308 q 126.7794,14.0866 167.63054,14.0866 40.85114,0 53.52908,-7.0433 12.67794,-7.0433 18.31258,-14.0866 7.0433,-8.4519 9.86062,-29.5818 4.22598,-29.5819 4.22598,-74.659 0,-33.8079 -126.7794,-129.5968 -47.89444,-35.2165 -88.74558,-87.3369 -39.44248,-53.5291 -39.44248,-100.0148 0,-46.4858 1.40866,-69.0244 1.40866,-22.5385 11.26928,-54.9377 11.26928,-33.8079 30.99052,-49.3031 54.93774,-40.8512 159.17858,-40.8512 l 164.81322,33.8079 q -11.26928,81.7023 -22.53856,91.5629 -9.86062,8.4519 -32.39918,8.4519 -21.1299,0 -50.71176,-4.2259 l -54.93774,-9.8607 q -57.75506,0 -70.433,25.3559 -9.86062,19.7213 -9.86062,52.1204 0,32.3992 40.85114,69.0244 40.85114,36.6251 90.15424,70.433 50.71176,33.8078 91.5629,84.5196 40.85115,49.3031 40.85115,98.6062 0,49.3031 -1.40866,74.659 -1.40866,25.3559 -12.67795,66.207 -9.86062,40.8511 -29.58186,61.981 -19.72124,21.1299 -60.57238,38.0339 -39.44248,15.4952 -83.11094,15.4952 -42.2598,0 -73.25032,-4.226 -29.58186,-2.8173 -70.433,-9.8606 -39.44248,-7.0433 -57.75506,-9.8606 z"
           style="font-weight:bold;font-family:Economica;-inkscape-font-specification:'Economica Bold'"
           id="path2961" />
        <path
           d="m 1191.726,1241.1377 q 7.0433,8.452 7.0433,15.4953 0,7.0433 -1.4086,9.8606 -1.4087,11.2693 -9.8607,50.7118 l -135.2313,664.8875 H 895.90741 L 740.9548,1225.6425 q 61.98104,0 87.33692,7.0433 25.35588,5.6346 33.80784,19.7212 9.86062,14.0866 18.31259,53.5291 l 94.38022,508.5263 h 4.22598 l 104.24085,-588.8199 q 95.7889,0 108.4668,15.4952 z"
           style="font-weight:bold;font-family:Economica;-inkscape-font-specification:'Economica Bold'"
           id="path2963" />
      </g>
    </g>
  </g>
</svg>
