<?xml version="1.0" encoding="UTF-8" standalone="no"?>
<!-- Created with Inkscape (http://www.inkscape.org/) -->

<svg
   width="180"
   height="180"
   viewBox="0 0 179.99989 180.00002"
   id="svg2"
   version="1.1"
   inkscape:version="1.1.1 (3bf5ae0d25, 2021-09-20, custom)"
   sodipodi:docname="zh-tw.svg"
   inkscape:export-filename="/home/peuc/OpenStreetMap/International/hebdoOSM/pl.png"
   inkscape:export-xdpi="9.306818"
   inkscape:export-ydpi="9.306818"
   xmlns:inkscape="http://www.inkscape.org/namespaces/inkscape"
   xmlns:sodipodi="http://sodipodi.sourceforge.net/DTD/sodipodi-0.dtd"
   xmlns:xlink="http://www.w3.org/1999/xlink"
   xmlns="http://www.w3.org/2000/svg"
   xmlns:svg="http://www.w3.org/2000/svg"
   xmlns:rdf="http://www.w3.org/1999/02/22-rdf-syntax-ns#"
   xmlns:cc="http://creativecommons.org/ns#"
   xmlns:dc="http://purl.org/dc/elements/1.1/">
  <defs
     id="defs4">
    <linearGradient
       id="linearGradient6999"
       inkscape:swatch="solid">
      <stop
         style="stop-color:#444444;stop-opacity:1;"
         offset="0"
         id="stop6997" />
    </linearGradient>
    <linearGradient
       inkscape:collect="always"
       xlink:href="#linearGradient6999"
       id="linearGradient2659"
       gradientUnits="userSpaceOnUse"
       gradientTransform="translate(106.14998,832.36643)"
       x1="-45.468395"
       y1="885.11652"
       x2="45.357578"
       y2="885.11652" />
    <linearGradient
       inkscape:collect="always"
       xlink:href="#linearGradient6999"
       id="linearGradient2663"
       gradientUnits="userSpaceOnUse"
       gradientTransform="translate(698.28853,1281.6116)"
       x1="-45.468395"
       y1="885.11652"
       x2="45.357578"
       y2="885.11652" />
  </defs>
  <sodipodi:namedview
     id="base"
     pagecolor="#ffffff"
     bordercolor="#666666"
     borderopacity="1.0"
     inkscape:pageopacity="0.0"
     inkscape:pageshadow="2"
     inkscape:zoom="3.959798"
     inkscape:cx="80.433396"
     inkscape:cy="103.41437"
     inkscape:document-units="px"
     inkscape:current-layer="g25161"
     showgrid="false"
     inkscape:snap-text-baseline="false"
     inkscape:window-width="2556"
     inkscape:window-height="1392"
     inkscape:window-x="0"
     inkscape:window-y="22"
     inkscape:window-maximized="1"
     units="px"
     inkscape:pagecheckerboard="0" />
  <metadata
     id="metadata7">
    <rdf:RDF>
      <cc:Work
         rdf:about="">
        <dc:format>image/svg+xml</dc:format>
        <dc:type
           rdf:resource="http://purl.org/dc/dcmitype/StillImage" />
      </cc:Work>
    </rdf:RDF>
  </metadata>
  <g
     inkscape:label="Calque 1"
     inkscape:groupmode="layer"
     id="layer1"
     transform="translate(0,-1034.3622)">
    <g
       id="g4194"
       transform="matrix(0.12304874,0,0,0.12304874,-0.57645916,927.03646)">
      <rect
         ry="247.31949"
         y="911.62952"
         x="43.608883"
         height="1384.4764"
         width="1384.8311"
         id="rect4800"
         style="fill:none;fill-opacity:1;stroke:#888888;stroke-width:76.4946;stroke-linecap:butt;stroke-linejoin:round;stroke-miterlimit:4;stroke-dasharray:none;stroke-dashoffset:0;stroke-opacity:1" />
      <g
         id="g23575"
         transform="translate(131.4039,2.8201401)">
        <g
           id="g25161"
           transform="translate(-31.694703,1.8962686)">
          <g
             aria-label="zh"
             id="text3931"
             style="font-size:1083.58px;line-height:125%;font-family:Sans;letter-spacing:0px;word-spacing:0px;fill:url(#linearGradient2659);stroke:#444444;stroke-width:8.12686px">
            <path
               d="M 411.49057,1764.6174 H 96.168798 v -75.8506 L 282.54455,1273.7557 H 116.75682 q 0,-68.2655 7.58506,-79.1013 8.66864,-11.9194 57.42973,-11.9194 h 216.716 v 76.9342 l -195.0444,413.9275 h 130.0296 q 58.51332,0 68.26554,11.9194 9.75222,10.8358 9.75222,79.1013 z"
               style="font-weight:bold;font-family:Economica;-inkscape-font-specification:'Economica Bold'"
               id="path2665" />
            <path
               d="m 610.86934,1699.6026 q 0,48.7611 -11.91938,57.4298 -11.91938,7.585 -84.51924,7.585 V 984.43986 q 71.51628,0 83.43566,8.66864 11.91938,7.5851 11.91938,57.4297 v 153.8684 l 84.51923,-29.2567 q 109.44158,0 133.28034,59.5969 23.83876,59.5969 23.83876,241.6384 v 288.2322 q -72.59986,0 -85.60282,-7.585 -11.91938,-8.6687 -11.91938,-57.4298 v -224.301 q 0,-101.8565 -5.4179,-141.949 -5.4179,-41.176 -17.33728,-53.0954 -10.8358,-11.9194 -30.34024,-13.003 l -99.68935,29.2567 9.75222,30.3402 z"
               style="font-weight:bold;font-family:Economica;-inkscape-font-specification:'Economica Bold'"
               id="path2667" />
          </g>
          <g
             aria-label="TW"
             id="text3931-1"
             style="font-size:541.791px;line-height:125%;font-family:Sans;letter-spacing:0px;word-spacing:0px;fill:url(#linearGradient2663);stroke:#444444;stroke-width:8.12686px">
            <path
               d="m 836.2164,1869.8255 h -66.09851 l 4.87612,13.5448 v 297.4432 q 0,24.9224 -5.41791,29.2568 -4.87612,3.7925 -34.13283,3.7925 h -13.00298 v -330.4925 l 3.79253,-13.5448 H 661.2179 v -46.0522 h 174.9985 z"
               style="font-weight:bold;font-family:Economica;-inkscape-font-specification:'Economica Bold'"
               id="path2688" />
            <path
               d="m 1142.8706,1823.7733 q 21.1298,0 27.0895,2.7089 6.5015,2.1672 6.5015,11.3776 0,9.2105 -67.1821,376.003 h -48.7612 l -35.2164,-184.7507 h -5.4179 l -36.29998,184.7507 h -48.2194 l -72.0582,-390.0895 h 26.00597 q 24.92238,0 29.7985,4.3343 5.41791,3.7925 10.29403,27.6313 l 31.96567,257.8926 h 3.79254 l 19.50448,-130.0299 11.9194,-44.4269 h 52.01189 l 10.8359,44.4269 20.0462,128.9463 h 4.3344 l 36.8418,-288.7746 z"
               style="font-weight:bold;font-family:Economica;-inkscape-font-specification:'Economica Bold'"
               id="path2690" />
          </g>
        </g>
      </g>
    </g>
  </g>
</svg>
